{"title":"Man on a Ledge 2012 R5 CAM AUDiO XviD-BiDA","uid":7172282,"size":552127669,"categoryP":"video","categoryS":"movies","magnet":"?xt=urn:btih:d1e852e4ba60290b5d73a1b0d3d34ed72d041703&amp;dn=Man+on+a+Ledge+2012+R5+CAM+AUDiO+XviD-BiDA&amp;tr=udp%3A%2F%2Ftracker.openbittorrent.com%3A80&amp;tr=udp%3A%2F%2Fopen.demonii.com%3A1337&amp;tr=udp%3A%2F%2Ftracker.coppersurfer.tk%3A6969&amp;tr=udp%3A%2F%2Fexodus.desync.com%3A6969","seeders":0,"leechers":0,"uploader":"BLOVES","files":8,"time":1334001790,"description":"Format : Matroska \nFormat version : Version 2 \nFile size : 527 MiB \nDuration : 1h 38mn \nOverall bit rate : 749 Kbps \nWriting application : Lavf51.12.1 \nWriting library : Lavf51.12.1 \n\nVideo \nID : 1 \nFormat : AVC \nFormat/Info : Advanced Video Codec \nFormat profile : &lt;a class=&quot;__cf_email__&quot; href=&quot;/cdn-cgi/l/email-protection&quot; data-cfemail=&quot;94d6f5e7f1f8fdfaf1d4d8a7baa4&quot;&gt;[email&amp;#160;protected]&lt;/a&gt;&lt;script cf-hash='f9e31' type=&quot;text/javascript&quot;&gt;\n/* &lt;![CDATA[ */!function(){try{var t=&quot;currentScript&quot;in document?document.currentScript:function(){for(var t=document.getElementsByTagName(&quot;script&quot;),e=t.length;e--;)if(t[e].getAttribute(&quot;cf-hash&quot;))return t[e]}();if(t&amp;&amp;t.previousSibling){var e,r,n,i,c=t.previousSibling,a=c.getAttribute(&quot;data-cfemail&quot;);if(a){for(e=&quot;&quot;,r=parseInt(a.substr(0,2),16),n=2;a.length-n;n+=2)i=parseInt(a.substr(n,2),16)^r,e+=String.fromCharCode(i);e=document.createTextNode(e),c.parentNode.replaceChild(e,c)}}}catch(u){}}();/* ]]&gt; */&lt;/script&gt; \nFormat settings, CABAC : No \nFormat settings, ReFrames : 1 frame \nFormat settings, GOP : M=1, N=12 \nCodec ID : V_MPEG4/ISO/AVC \nDuration : 1h 38mn \nBit rate : 622 Kbps \nWidth : 720 pixels \nHeight : 480 pixels \nDisplay aspect ratio : 2.35:1 \nOriginal display aspect ratio : 2.35:1 \nFrame rate mode : Variable \nFrame rate : 25.000 fps \nStandard : NTSC \nColor space : YUV \nChroma subsampling : 4:2:0 \nBit depth : 8 bits \nScan type : Progressive \nBits/(Pixel*Frame) : 0.072 \nStream size : 437 MiB (83%) \nDefault : Yes \nForced : No \n\nAudio \nID : 2 \nFormat : MPEG Audio \nFormat version : Version 1 \nFormat profile : Layer 2 \nCodec ID : A_MPEG/L2 \nCodec ID/Hint : MP2 \nDuration : 1h 38mn \nBit rate mode : Constant \nBit rate : 112 Kbps \nChannel(s) : 2 channels \nSampling rate : 44.1 KHz \nCompression mode : Lossy \nStream size : 78.8 MiB (15%) \nDefault : Yes \nForced : No \n","torrent":{"xt":"urn:btih:d1e852e4ba60290b5d73a1b0d3d34ed72d041703","amp;dn":"Man+on+a+Ledge+2012+R5+CAM+AUDiO+XviD-BiDA","amp;tr":["udp%3A%2F%2Ftracker.openbittorrent.com%3A80","udp%3A%2F%2Fopen.demonii.com%3A1337","udp%3A%2F%2Ftracker.coppersurfer.tk%3A6969","udp%3A%2F%2Fexodus.desync.com%3A6969"],"infoHash":"d1e852e4ba60290b5d73a1b0d3d34ed72d041703","infoHashBuffer":{"type":"Buffer","data":[209,232,82,228,186,96,41,11,93,115,161,176,211,211,78,215,45,4,23,3]},"announce":[],"urlList":[]}}